<mxfile>
    <diagram id="Go-RInH0ps0c4jRph2go" name="Page-1">
        <mxGraphModel dx="898" dy="680" grid="1" gridSize="10" guides="1" tooltips="1" connect="1" arrows="1" fold="1" page="1" pageScale="1" pageWidth="1654" pageHeight="1169" background="#FFFFFF" math="0" shadow="0">
            <root>
                <mxCell id="0"/>
                <mxCell id="1" parent="0"/>
                <mxCell id="3" value="1. Register as&amp;nbsp; an Affiliate" style="text;html=1;align=center;verticalAlign=middle;resizable=0;points=[];autosize=1;fontColor=#1A1A1A;" vertex="1" parent="1">
                    <mxGeometry x="25" y="40" width="150" height="20" as="geometry"/>
                </mxCell>
                <mxCell id="5" value="a. Calls the endpoint for create user with role Affiliate." style="text;html=1;align=center;verticalAlign=middle;resizable=0;points=[];autosize=1;fontColor=#1A1A1A;" vertex="1" parent="1">
                    <mxGeometry x="40" y="60" width="300" height="20" as="geometry"/>
                </mxCell>
                <mxCell id="10" value="2. Login as an Affiliate" style="text;html=1;align=center;verticalAlign=middle;resizable=0;points=[];autosize=1;fontColor=#1A1A1A;" vertex="1" parent="1">
                    <mxGeometry x="25" y="102" width="130" height="20" as="geometry"/>
                </mxCell>
                <mxCell id="12" value="a. Update profile with - Firstname, Lastname, Country, Phone, Email and Website url" style="text;html=1;align=center;verticalAlign=middle;resizable=0;points=[];autosize=1;fontColor=#1A1A1A;" vertex="1" parent="1">
                    <mxGeometry x="40" y="130" width="460" height="20" as="geometry"/>
                </mxCell>
                <mxCell id="13" value="b. Update bank account information for payout.&amp;nbsp;" style="text;html=1;align=center;verticalAlign=middle;resizable=0;points=[];autosize=1;fontColor=#1A1A1A;" vertex="1" parent="1">
                    <mxGeometry x="38" y="150" width="270" height="20" as="geometry"/>
                </mxCell>
                <mxCell id="14" value="3. Generate personal affiliate link" style="text;html=1;align=center;verticalAlign=middle;resizable=0;points=[];autosize=1;fontColor=#1A1A1A;" vertex="1" parent="1">
                    <mxGeometry x="25" y="190" width="190" height="20" as="geometry"/>
                </mxCell>
                <mxCell id="16" value="a. Select your country." style="text;html=1;align=center;verticalAlign=middle;resizable=0;points=[];autosize=1;fontColor=#1A1A1A;" vertex="1" parent="1">
                    <mxGeometry x="40" y="220" width="130" height="20" as="geometry"/>
                </mxCell>
                <mxCell id="17" value="b. Select product category." style="text;html=1;align=center;verticalAlign=middle;resizable=0;points=[];autosize=1;fontColor=#1A1A1A;" vertex="1" parent="1">
                    <mxGeometry x="37" y="240" width="160" height="20" as="geometry"/>
                </mxCell>
                <mxCell id="18" value="c. Select a specific product." style="text;html=1;align=center;verticalAlign=middle;resizable=0;points=[];autosize=1;fontColor=#1A1A1A;" vertex="1" parent="1">
                    <mxGeometry x="38" y="260" width="160" height="20" as="geometry"/>
                </mxCell>
                <mxCell id="19" value="d. Advertize the product with the generated affiliate link for that product." style="text;html=1;align=center;verticalAlign=middle;resizable=0;points=[];autosize=1;fontColor=#1A1A1A;" vertex="1" parent="1">
                    <mxGeometry x="38" y="280" width="390" height="20" as="geometry"/>
                </mxCell>
                <mxCell id="20" value="e. If a purchase is made by the generated url within 30 days, The affiliate's earns 10% of what was purchased.&amp;nbsp;" style="text;html=1;align=center;verticalAlign=middle;resizable=0;points=[];autosize=1;fontColor=#1A1A1A;" vertex="1" parent="1">
                    <mxGeometry x="37" y="300" width="600" height="20" as="geometry"/>
                </mxCell>
                <mxCell id="21" value="4. Payout" style="text;html=1;align=center;verticalAlign=middle;resizable=0;points=[];autosize=1;fontColor=#1A1A1A;" vertex="1" parent="1">
                    <mxGeometry x="25" y="350" width="70" height="20" as="geometry"/>
                </mxCell>
                <mxCell id="22" value="a. Payout will be made automatically every 1st week of the month to the affiliate's updated bank account." style="text;html=1;align=center;verticalAlign=middle;resizable=0;points=[];autosize=1;fontColor=#1A1A1A;" vertex="1" parent="1">
                    <mxGeometry x="40" y="380" width="570" height="20" as="geometry"/>
                </mxCell>
                <mxCell id="23" value="b. Bank account information has not been updated, no payment will be made." style="text;html=1;align=center;verticalAlign=middle;resizable=0;points=[];autosize=1;fontColor=#1A1A1A;" vertex="1" parent="1">
                    <mxGeometry x="40" y="400" width="430" height="20" as="geometry"/>
                </mxCell>
                <mxCell id="25" value="API Gateway" style="outlineConnect=0;fontColor=#232F3E;gradientColor=none;strokeColor=#ffffff;fillColor=#232F3E;dashed=0;verticalLabelPosition=middle;verticalAlign=bottom;align=center;html=1;whiteSpace=wrap;fontSize=10;fontStyle=1;spacing=3;shape=mxgraph.aws4.productIcon;prIcon=mxgraph.aws4.api_gateway;" vertex="1" parent="1">
                    <mxGeometry x="492" y="779" width="80" height="110" as="geometry"/>
                </mxCell>
                <mxCell id="29" style="edgeStyle=none;rounded=0;orthogonalLoop=1;jettySize=auto;html=1;exitX=1;exitY=0.5;exitDx=0;exitDy=0;fontColor=#1A1A1A;labelBorderColor=#000000;strokeColor=#000000;strokeWidth=2;startArrow=classic;startFill=1;" edge="1" parent="1">
                    <mxGeometry relative="1" as="geometry">
                        <mxPoint x="160" y="823.5" as="sourcePoint"/>
                        <mxPoint x="290" y="823.5" as="targetPoint"/>
                    </mxGeometry>
                </mxCell>
                <mxCell id="30" value="&lt;span style=&quot;&quot;&gt;REST API&lt;br&gt;json&lt;br&gt;&lt;/span&gt;" style="edgeLabel;html=1;align=center;verticalAlign=middle;resizable=0;points=[];fontColor=#1A1A1A;labelBackgroundColor=#FFFFFF;" vertex="1" connectable="0" parent="29">
                    <mxGeometry x="-0.2763" y="-1" relative="1" as="geometry">
                        <mxPoint x="15" y="-0.5" as="offset"/>
                    </mxGeometry>
                </mxCell>
                <mxCell id="27" value="Desktop and Mobile" style="strokeColor=#dddddd;shadow=1;strokeWidth=1;rounded=1;absoluteArcSize=1;arcSize=2;labelPosition=center;verticalLabelPosition=middle;align=center;verticalAlign=bottom;spacingLeft=0;fontColor=#999999;fontSize=12;whiteSpace=wrap;spacingBottom=2;" vertex="1" parent="1">
                    <mxGeometry x="92" y="779" width="70" height="100" as="geometry"/>
                </mxCell>
                <mxCell id="28" value="" style="dashed=0;connectable=0;html=1;fillColor=#757575;strokeColor=none;shape=mxgraph.gcp2.desktop_and_mobile;part=1;" vertex="1" parent="27">
                    <mxGeometry x="0.5" width="50" height="33" relative="1" as="geometry">
                        <mxPoint x="-25" y="18.5" as="offset"/>
                    </mxGeometry>
                </mxCell>
                <mxCell id="32" value="Application Load Balancer" style="outlineConnect=0;fontColor=#232F3E;gradientColor=none;strokeColor=#ffffff;fillColor=#232F3E;dashed=0;verticalLabelPosition=middle;verticalAlign=bottom;align=center;html=1;whiteSpace=wrap;fontSize=10;fontStyle=1;spacing=3;shape=mxgraph.aws4.productIcon;prIcon=mxgraph.aws4.application_load_balancer;labelBackgroundColor=#FFFFFF;" vertex="1" parent="1">
                    <mxGeometry x="292" y="779" width="80" height="110" as="geometry"/>
                </mxCell>
                <mxCell id="33" style="edgeStyle=none;rounded=0;orthogonalLoop=1;jettySize=auto;html=1;exitX=1;exitY=0.5;exitDx=0;exitDy=0;fontColor=#1A1A1A;labelBorderColor=#000000;strokeColor=#000000;strokeWidth=2;startArrow=classic;startFill=1;" edge="1" parent="1">
                    <mxGeometry relative="1" as="geometry">
                        <mxPoint x="372" y="824" as="sourcePoint"/>
                        <mxPoint x="492" y="824.5" as="targetPoint"/>
                    </mxGeometry>
                </mxCell>
                <mxCell id="34" value="&lt;span style=&quot;&quot;&gt;REST API&lt;br&gt;json&lt;br&gt;&lt;/span&gt;" style="edgeLabel;html=1;align=center;verticalAlign=middle;resizable=0;points=[];fontColor=#1A1A1A;labelBackgroundColor=#FFFFFF;" vertex="1" connectable="0" parent="33">
                    <mxGeometry x="-0.2763" y="-1" relative="1" as="geometry">
                        <mxPoint x="17" y="-0.6799999999999999" as="offset"/>
                    </mxGeometry>
                </mxCell>
                <mxCell id="36" value="" style="verticalLabelPosition=bottom;html=1;verticalAlign=top;align=center;strokeColor=none;fillColor=#00BEF2;shape=mxgraph.azure.cloud_service;labelBackgroundColor=#FFFFFF;fontColor=#1A1A1A;" vertex="1" parent="1">
                    <mxGeometry x="735" y="959" width="50" height="40" as="geometry"/>
                </mxCell>
                <mxCell id="37" value="Authentication service" style="text;html=1;align=right;verticalAlign=middle;resizable=0;points=[];autosize=1;fontColor=#1A1A1A;" vertex="1" parent="1">
                    <mxGeometry x="700" y="1012" width="130" height="20" as="geometry"/>
                </mxCell>
                <mxCell id="39" style="edgeStyle=none;rounded=0;orthogonalLoop=1;jettySize=auto;html=1;fontColor=#1A1A1A;labelBorderColor=#000000;strokeColor=#000000;strokeWidth=2;startArrow=classic;startFill=1;" edge="1" parent="1" source="36" target="25">
                    <mxGeometry relative="1" as="geometry">
                        <mxPoint x="538" y="950" as="sourcePoint"/>
                        <mxPoint x="480" y="995" as="targetPoint"/>
                    </mxGeometry>
                </mxCell>
                <mxCell id="40" value="&lt;span style=&quot;&quot;&gt;REST API&lt;br&gt;json&lt;br&gt;&lt;/span&gt;" style="edgeLabel;html=1;align=center;verticalAlign=middle;resizable=0;points=[];fontColor=#1A1A1A;labelBackgroundColor=#FFFFFF;" vertex="1" connectable="0" parent="39">
                    <mxGeometry x="-0.2763" y="-1" relative="1" as="geometry">
                        <mxPoint x="-2.34" y="-5.03" as="offset"/>
                    </mxGeometry>
                </mxCell>
                <mxCell id="41" value="" style="verticalLabelPosition=bottom;html=1;verticalAlign=top;align=center;strokeColor=none;fillColor=#00BEF2;shape=mxgraph.azure.cloud_service;labelBackgroundColor=#FFFFFF;fontColor=#1A1A1A;" vertex="1" parent="1">
                    <mxGeometry x="737" y="848" width="50" height="40" as="geometry"/>
                </mxCell>
                <mxCell id="42" value="Affiliate service" style="text;html=1;align=right;verticalAlign=middle;resizable=0;points=[];autosize=1;fontColor=#1A1A1A;" vertex="1" parent="1">
                    <mxGeometry x="732" y="902" width="100" height="20" as="geometry"/>
                </mxCell>
                <mxCell id="43" style="edgeStyle=none;rounded=0;orthogonalLoop=1;jettySize=auto;html=1;fontColor=#1A1A1A;labelBorderColor=#000000;strokeColor=#000000;strokeWidth=2;startArrow=classic;startFill=1;" edge="1" parent="1" target="25">
                    <mxGeometry relative="1" as="geometry">
                        <mxPoint x="732" y="860" as="sourcePoint"/>
                        <mxPoint x="617" y="894.998306010929" as="targetPoint"/>
                    </mxGeometry>
                </mxCell>
                <mxCell id="44" value="&lt;span style=&quot;&quot;&gt;REST API&lt;br&gt;json&lt;br&gt;&lt;/span&gt;" style="edgeLabel;html=1;align=center;verticalAlign=middle;resizable=0;points=[];fontColor=#1A1A1A;labelBackgroundColor=#FFFFFF;" vertex="1" connectable="0" parent="43">
                    <mxGeometry x="-0.2763" y="-1" relative="1" as="geometry">
                        <mxPoint x="-2.34" y="-5.03" as="offset"/>
                    </mxGeometry>
                </mxCell>
                <mxCell id="45" value="" style="verticalLabelPosition=bottom;html=1;verticalAlign=top;align=center;strokeColor=none;fillColor=#00BEF2;shape=mxgraph.azure.cloud_service;labelBackgroundColor=#FFFFFF;fontColor=#1A1A1A;" vertex="1" parent="1">
                    <mxGeometry x="737" y="734" width="50" height="40" as="geometry"/>
                </mxCell>
                <mxCell id="46" value="Product service" style="text;html=1;align=center;verticalAlign=middle;resizable=0;points=[];autosize=1;fontColor=#1A1A1A;" vertex="1" parent="1">
                    <mxGeometry x="737" y="788" width="100" height="20" as="geometry"/>
                </mxCell>
                <mxCell id="47" style="edgeStyle=none;rounded=0;orthogonalLoop=1;jettySize=auto;html=1;fontColor=#1A1A1A;labelBorderColor=#000000;strokeColor=#000000;strokeWidth=2;startArrow=classic;startFill=1;" edge="1" parent="1" source="50" target="25">
                    <mxGeometry relative="1" as="geometry">
                        <mxPoint x="682" y="834" as="sourcePoint"/>
                        <mxPoint x="595.04" y="879" as="targetPoint"/>
                        <Array as="points"/>
                    </mxGeometry>
                </mxCell>
                <mxCell id="48" value="&lt;span style=&quot;&quot;&gt;REST API&lt;br&gt;json&lt;br&gt;&lt;/span&gt;" style="edgeLabel;html=1;align=center;verticalAlign=middle;resizable=0;points=[];fontColor=#1A1A1A;labelBackgroundColor=#FFFFFF;" vertex="1" connectable="0" parent="47">
                    <mxGeometry x="-0.2763" y="-1" relative="1" as="geometry">
                        <mxPoint x="-17.4" y="14.549999999999997" as="offset"/>
                    </mxGeometry>
                </mxCell>
                <mxCell id="49" value="" style="verticalLabelPosition=bottom;html=1;verticalAlign=top;align=center;strokeColor=none;fillColor=#00BEF2;shape=mxgraph.azure.cloud_service;labelBackgroundColor=#FFFFFF;fontColor=#1A1A1A;" vertex="1" parent="1">
                    <mxGeometry x="737" y="630" width="50" height="40" as="geometry"/>
                </mxCell>
                <mxCell id="50" value="Order service" style="text;html=1;align=right;verticalAlign=middle;resizable=0;points=[];autosize=1;fontColor=#1A1A1A;" vertex="1" parent="1">
                    <mxGeometry x="742" y="680" width="90" height="20" as="geometry"/>
                </mxCell>
                <mxCell id="51" style="edgeStyle=none;rounded=0;orthogonalLoop=1;jettySize=auto;html=1;fontColor=#1A1A1A;labelBorderColor=#000000;strokeColor=#000000;strokeWidth=2;startArrow=classic;startFill=1;" edge="1" parent="1" target="25">
                    <mxGeometry relative="1" as="geometry">
                        <mxPoint x="730" y="570" as="sourcePoint"/>
                        <mxPoint x="532" y="770" as="targetPoint"/>
                        <Array as="points"/>
                    </mxGeometry>
                </mxCell>
                <mxCell id="52" value="&lt;span style=&quot;&quot;&gt;REST API&lt;br&gt;json&lt;br&gt;&lt;/span&gt;" style="edgeLabel;html=1;align=center;verticalAlign=middle;resizable=0;points=[];fontColor=#1A1A1A;labelBackgroundColor=#FFFFFF;" vertex="1" connectable="0" parent="51">
                    <mxGeometry x="-0.2763" y="-1" relative="1" as="geometry">
                        <mxPoint x="-22.2" y="34.6" as="offset"/>
                    </mxGeometry>
                </mxCell>
                <mxCell id="54" value="" style="aspect=fixed;html=1;points=[];align=center;image;fontSize=12;image=img/lib/mscae/Cache_Redis_Product.svg;labelBackgroundColor=#FFFFFF;" vertex="1" parent="1">
                    <mxGeometry x="1005" y="855" width="50" height="42" as="geometry"/>
                </mxCell>
                <mxCell id="57" style="edgeStyle=none;rounded=0;orthogonalLoop=1;jettySize=auto;html=1;fontColor=#1A1A1A;labelBorderColor=#000000;strokeColor=#000000;strokeWidth=2;startArrow=classic;startFill=1;" edge="1" parent="1">
                    <mxGeometry relative="1" as="geometry">
                        <mxPoint x="810" y="580" as="sourcePoint"/>
                        <mxPoint x="1020" y="710" as="targetPoint"/>
                    </mxGeometry>
                </mxCell>
                <mxCell id="58" style="edgeStyle=none;rounded=0;orthogonalLoop=1;jettySize=auto;html=1;fontColor=#1A1A1A;labelBorderColor=#000000;strokeColor=#000000;strokeWidth=2;startArrow=classic;startFill=1;entryX=1;entryY=0.5;entryDx=0;entryDy=0;" edge="1" parent="1" target="71">
                    <mxGeometry relative="1" as="geometry">
                        <mxPoint x="990" y="765" as="sourcePoint"/>
                        <mxPoint x="880" y="865" as="targetPoint"/>
                    </mxGeometry>
                </mxCell>
                <mxCell id="60" value="" style="outlineConnect=0;dashed=0;verticalLabelPosition=bottom;verticalAlign=top;align=center;html=1;shape=mxgraph.aws3.elasticsearch_service;fillColor=#F58534;gradientColor=none;labelBackgroundColor=#FFFFFF;fontColor=#1A1A1A;" vertex="1" parent="1">
                    <mxGeometry x="738.25" y="510" width="67.5" height="81" as="geometry"/>
                </mxCell>
                <mxCell id="62" style="edgeStyle=none;rounded=0;orthogonalLoop=1;jettySize=auto;html=1;fontColor=#1A1A1A;labelBorderColor=#000000;strokeColor=#000000;strokeWidth=2;startArrow=classic;startFill=1;" edge="1" parent="1" target="66">
                    <mxGeometry relative="1" as="geometry">
                        <mxPoint x="820" y="660" as="sourcePoint"/>
                        <mxPoint x="991" y="643" as="targetPoint"/>
                    </mxGeometry>
                </mxCell>
                <mxCell id="63" value="Elasticserach service" style="text;html=1;align=center;verticalAlign=middle;resizable=0;points=[];autosize=1;fontColor=#1A1A1A;" vertex="1" parent="1">
                    <mxGeometry x="707" y="591" width="130" height="20" as="geometry"/>
                </mxCell>
                <mxCell id="66" value="" style="outlineConnect=0;fontColor=#232F3E;gradientColor=none;fillColor=#BC1356;strokeColor=none;dashed=0;verticalLabelPosition=bottom;verticalAlign=top;align=center;html=1;fontSize=12;fontStyle=0;aspect=fixed;pointerEvents=1;shape=mxgraph.aws4.queue;labelBackgroundColor=#FFFFFF;" vertex="1" parent="1">
                    <mxGeometry x="991" y="720" width="78" height="47" as="geometry"/>
                </mxCell>
                <mxCell id="67" style="edgeStyle=none;rounded=0;orthogonalLoop=1;jettySize=auto;html=1;fontColor=#1A1A1A;labelBorderColor=#000000;strokeColor=#000000;strokeWidth=2;startArrow=classic;startFill=1;exitX=0.02;exitY=0.071;exitDx=0;exitDy=0;exitPerimeter=0;" edge="1" parent="1" source="54">
                    <mxGeometry relative="1" as="geometry">
                        <mxPoint x="925" y="779" as="sourcePoint"/>
                        <mxPoint x="820" y="770" as="targetPoint"/>
                    </mxGeometry>
                </mxCell>
                <mxCell id="68" style="edgeStyle=none;rounded=0;orthogonalLoop=1;jettySize=auto;html=1;fontColor=#1A1A1A;labelBorderColor=#000000;strokeColor=#000000;strokeWidth=2;startArrow=classic;startFill=1;" edge="1" parent="1">
                    <mxGeometry relative="1" as="geometry">
                        <mxPoint x="1007" y="796" as="sourcePoint"/>
                        <mxPoint x="817" y="1123" as="targetPoint"/>
                    </mxGeometry>
                </mxCell>
                <mxCell id="69" value="Message queue" style="text;html=1;align=center;verticalAlign=middle;resizable=0;points=[];autosize=1;fontColor=#1A1A1A;" vertex="1" parent="1">
                    <mxGeometry x="980" y="773" width="100" height="20" as="geometry"/>
                </mxCell>
                <mxCell id="70" value="Redis cache" style="text;html=1;align=center;verticalAlign=middle;resizable=0;points=[];autosize=1;fontColor=#1A1A1A;" vertex="1" parent="1">
                    <mxGeometry x="990" y="897" width="80" height="20" as="geometry"/>
                </mxCell>
                <mxCell id="71" value="" style="aspect=fixed;perimeter=ellipsePerimeter;html=1;align=center;shadow=0;dashed=0;spacingTop=3;image;image=img/lib/active_directory/database_partition_5.svg;labelBackgroundColor=#FFFFFF;fontColor=#1A1A1A;" vertex="1" parent="1">
                    <mxGeometry x="770" y="974" width="50" height="37" as="geometry"/>
                </mxCell>
                <mxCell id="72" value="" style="aspect=fixed;perimeter=ellipsePerimeter;html=1;align=center;shadow=0;dashed=0;spacingTop=3;image;image=img/lib/active_directory/database_partition_5.svg;labelBackgroundColor=#FFFFFF;fontColor=#1A1A1A;" vertex="1" parent="1">
                    <mxGeometry x="767" y="865" width="50" height="37" as="geometry"/>
                </mxCell>
                <mxCell id="73" value="" style="aspect=fixed;perimeter=ellipsePerimeter;html=1;align=center;shadow=0;dashed=0;spacingTop=3;image;image=img/lib/active_directory/database_partition_5.svg;labelBackgroundColor=#FFFFFF;fontColor=#1A1A1A;" vertex="1" parent="1">
                    <mxGeometry x="767" y="748" width="50" height="37" as="geometry"/>
                </mxCell>
                <mxCell id="74" value="" style="aspect=fixed;perimeter=ellipsePerimeter;html=1;align=center;shadow=0;dashed=0;spacingTop=3;image;image=img/lib/active_directory/database_partition_5.svg;labelBackgroundColor=#FFFFFF;fontColor=#1A1A1A;" vertex="1" parent="1">
                    <mxGeometry x="767" y="643" width="50" height="37" as="geometry"/>
                </mxCell>
                <mxCell id="75" style="edgeStyle=none;rounded=0;orthogonalLoop=1;jettySize=auto;html=1;fontColor=#1A1A1A;labelBorderColor=#000000;strokeColor=#000000;strokeWidth=2;startArrow=classic;startFill=1;" edge="1" parent="1">
                    <mxGeometry relative="1" as="geometry">
                        <mxPoint x="791.5" y="745" as="sourcePoint"/>
                        <mxPoint x="791.5" y="700" as="targetPoint"/>
                    </mxGeometry>
                </mxCell>
                <mxCell id="76" value="&lt;span&gt;Grpc&lt;br&gt;&lt;/span&gt;" style="edgeLabel;html=1;align=center;verticalAlign=middle;resizable=0;points=[];fontColor=#1A1A1A;labelBackgroundColor=#FFFFFF;" vertex="1" connectable="0" parent="75">
                    <mxGeometry x="-0.2763" y="-1" relative="1" as="geometry">
                        <mxPoint x="-1.1399999999999997" y="-9.02" as="offset"/>
                    </mxGeometry>
                </mxCell>
                <mxCell id="81" value="" style="verticalLabelPosition=bottom;html=1;verticalAlign=top;align=center;strokeColor=none;fillColor=#00BEF2;shape=mxgraph.azure.cloud_service;labelBackgroundColor=#FFFFFF;fontColor=#1A1A1A;" vertex="1" parent="1">
                    <mxGeometry x="747" y="1100" width="50" height="40" as="geometry"/>
                </mxCell>
                <mxCell id="82" style="edgeStyle=none;rounded=0;orthogonalLoop=1;jettySize=auto;html=1;fontColor=#1A1A1A;labelBorderColor=#000000;strokeColor=#000000;strokeWidth=2;startArrow=classic;startFill=1;exitX=0.18;exitY=0.2;exitDx=0;exitDy=0;exitPerimeter=0;" edge="1" parent="1" source="81" target="25">
                    <mxGeometry relative="1" as="geometry">
                        <mxPoint x="442" y="915" as="sourcePoint"/>
                        <mxPoint x="500" y="890" as="targetPoint"/>
                        <Array as="points"/>
                    </mxGeometry>
                </mxCell>
                <mxCell id="83" value="&lt;span style=&quot;&quot;&gt;REST API&lt;br&gt;json&lt;br&gt;&lt;/span&gt;" style="edgeLabel;html=1;align=center;verticalAlign=middle;resizable=0;points=[];fontColor=#1A1A1A;labelBackgroundColor=#FFFFFF;" vertex="1" connectable="0" parent="82">
                    <mxGeometry x="-0.2763" y="-1" relative="1" as="geometry">
                        <mxPoint x="-20.32" y="-33.58" as="offset"/>
                    </mxGeometry>
                </mxCell>
                <mxCell id="84" value="" style="aspect=fixed;perimeter=ellipsePerimeter;html=1;align=center;shadow=0;dashed=0;spacingTop=3;image;image=img/lib/active_directory/database_partition_5.svg;labelBackgroundColor=#FFFFFF;fontColor=#1A1A1A;" vertex="1" parent="1">
                    <mxGeometry x="777" y="1123" width="50" height="37" as="geometry"/>
                </mxCell>
                <mxCell id="85" value="Payment service" style="text;html=1;align=right;verticalAlign=middle;resizable=0;points=[];autosize=1;fontColor=#1A1A1A;" vertex="1" parent="1">
                    <mxGeometry x="727" y="1160" width="100" height="20" as="geometry"/>
                </mxCell>
                <mxCell id="93" style="edgeStyle=none;rounded=0;orthogonalLoop=1;jettySize=auto;html=1;fontColor=#1A1A1A;labelBorderColor=#000000;strokeColor=#000000;strokeWidth=2;startArrow=classic;startFill=1;" edge="1" parent="1">
                    <mxGeometry relative="1" as="geometry">
                        <mxPoint x="794.5" y="860" as="sourcePoint"/>
                        <mxPoint x="794.5" y="815" as="targetPoint"/>
                    </mxGeometry>
                </mxCell>
                <mxCell id="94" value="&lt;span&gt;Grpc&lt;br&gt;&lt;/span&gt;" style="edgeLabel;html=1;align=center;verticalAlign=middle;resizable=0;points=[];fontColor=#1A1A1A;labelBackgroundColor=#FFFFFF;" vertex="1" connectable="0" parent="93">
                    <mxGeometry x="-0.2763" y="-1" relative="1" as="geometry">
                        <mxPoint x="-1.1399999999999997" y="-9.02" as="offset"/>
                    </mxGeometry>
                </mxCell>
                <mxCell id="95" style="edgeStyle=none;rounded=0;orthogonalLoop=1;jettySize=auto;html=1;fontColor=#1A1A1A;labelBorderColor=#000000;strokeColor=#000000;strokeWidth=2;startArrow=classic;startFill=1;" edge="1" parent="1">
                    <mxGeometry relative="1" as="geometry">
                        <mxPoint x="791.5" y="974" as="sourcePoint"/>
                        <mxPoint x="791.5" y="929" as="targetPoint"/>
                    </mxGeometry>
                </mxCell>
                <mxCell id="96" value="&lt;span&gt;Grpc&lt;br&gt;&lt;/span&gt;" style="edgeLabel;html=1;align=center;verticalAlign=middle;resizable=0;points=[];fontColor=#1A1A1A;labelBackgroundColor=#FFFFFF;" vertex="1" connectable="0" parent="95">
                    <mxGeometry x="-0.2763" y="-1" relative="1" as="geometry">
                        <mxPoint x="-1.1399999999999997" y="-9.02" as="offset"/>
                    </mxGeometry>
                </mxCell>
                <mxCell id="97" style="edgeStyle=none;rounded=0;orthogonalLoop=1;jettySize=auto;html=1;fontColor=#1A1A1A;labelBorderColor=#000000;strokeColor=#000000;strokeWidth=2;startArrow=classic;startFill=1;" edge="1" parent="1">
                    <mxGeometry relative="1" as="geometry">
                        <mxPoint x="797" y="1095" as="sourcePoint"/>
                        <mxPoint x="797" y="1050" as="targetPoint"/>
                    </mxGeometry>
                </mxCell>
                <mxCell id="98" value="&lt;span&gt;Grpc&lt;br&gt;&lt;/span&gt;" style="edgeLabel;html=1;align=center;verticalAlign=middle;resizable=0;points=[];fontColor=#1A1A1A;labelBackgroundColor=#FFFFFF;" vertex="1" connectable="0" parent="97">
                    <mxGeometry x="-0.2763" y="-1" relative="1" as="geometry">
                        <mxPoint x="-1.1399999999999997" y="-9.02" as="offset"/>
                    </mxGeometry>
                </mxCell>
            </root>
        </mxGraphModel>
    </diagram>
</mxfile>